<svg width="14" height="14" viewBox="0 0 14 14" fill="currentColor" xmlns="http://www.w3.org/2000/svg">
<path d="M7.05273 2.04353C7.44322 1.6532 8.07631 1.6532 8.4668 2.04353L12.709 6.2867C12.8815 6.45937 12.9781 6.67932 12.998 6.90486C13.0253 7.19155 12.9285 7.48805 12.709 7.7076L8.4668 11.9508C8.07638 12.3406 7.44312 12.3407 7.05273 11.9508C6.66246 11.5604 6.66275 10.9272 7.05273 10.5367L9.58789 8.00056H2C1.44791 8.00056 1.00031 7.55259 1 7.00056C1 6.44828 1.44772 6.00056 2 6.00056H9.59473L7.05273 3.4576C6.66249 3.06719 6.66265 2.43404 7.05273 2.04353Z" fill="currentColor"/>
</svg>
