<svg width="14" height="14" viewBox="0 0 14 14" fill="currentColor" xmlns="http://www.w3.org/2000/svg">
<path d="M2.04805 6.94536C1.65772 6.55487 1.65772 5.92178 2.04805 5.5313L6.29122 1.28911C6.46389 1.11655 6.68384 1.01998 6.90938 1.00005C7.19607 0.972746 7.49257 1.06957 7.71212 1.28911L11.9553 5.5313C12.3451 5.92172 12.3452 6.55497 11.9553 6.94536C11.5649 7.33563 10.9318 7.33534 10.5412 6.94536L8.00508 4.4102L8.00508 11.9981C8.00508 12.5502 7.55711 12.9978 7.00508 12.9981C6.4528 12.9981 6.00508 12.5504 6.00508 11.9981L6.00508 4.40337L3.46212 6.94536C3.07171 7.33561 2.43856 7.33544 2.04805 6.94536Z" fill="currentColor"/>
</svg>
