<svg width="14" height="14" viewBox="0 0 14 14" fill="currentColor" xmlns="http://www.w3.org/2000/svg">
<path d="M6.94988 2.04353C6.55939 1.6532 5.92631 1.6532 5.53582 2.04353L1.29363 6.2867C1.12107 6.45937 1.02451 6.67932 1.00457 6.90486C0.97727 7.19155 1.07409 7.48805 1.29363 7.7076L5.53582 11.9508C5.92624 12.3406 6.55949 12.3407 6.94988 11.9508C7.34016 11.5604 7.33987 10.9272 6.94988 10.5367L4.41473 8.00056H12.0026C12.5547 8.00056 13.0023 7.55259 13.0026 7.00056C13.0026 6.44828 12.5549 6.00056 12.0026 6.00056H4.40789L6.94988 3.4576C7.34013 3.06719 7.33996 2.43404 6.94988 2.04353Z" fill="currentColor"/>
</svg>
