<svg width="14" height="14" viewBox="0 0 14 14" fill="currentColor" xmlns="http://www.w3.org/2000/svg">
<path d="M11.9546 7.04822C12.3449 7.43871 12.3449 8.07179 11.9546 8.46228L7.7114 12.7045C7.53873 12.877 7.31878 12.9736 7.09323 12.9935C6.80654 13.0208 6.51004 12.924 6.2905 12.7045L2.04734 8.46228C1.65747 8.07186 1.65742 7.43861 2.04734 7.04822C2.4377 6.65794 3.07086 6.65823 3.4614 7.04822L5.99753 9.58337L5.99753 1.99548C5.99753 1.44339 6.44551 0.995793 6.99753 0.995483C7.54982 0.995483 7.99753 1.4432 7.99753 1.99548L7.99753 9.59021L10.5405 7.04822C10.9309 6.65797 11.5641 6.65814 11.9546 7.04822Z" fill="currentColor"/>
</svg>
