<svg width="16" height="16" viewBox="0 0 16 16" fill="none" xmlns="http://www.w3.org/2000/svg">
<path d="M3.4585 9.91381C4.03343 9.85007 4.86006 9.91657 5.12637 10.0231C7.31092 7.4355 9.01575 5.90686 12.5142 3.03286C12.5767 2.97676 12.5754 2.99863 12.5314 3.05236C12.1079 3.83865 8.63016 8.35605 5.9026 10.7622C6.13389 11.1091 6.21449 11.8688 6.19786 12.4533C6.19443 12.5739 5.95228 12.5967 5.8899 12.4935C5.62233 12.0508 5.19435 11.6127 5.05205 11.6127L3.84637 12.6462C3.68538 12.7842 3.44638 12.779 3.29142 12.6343C3.1285 12.4821 3.11444 12.2286 3.25953 12.0593L4.27582 10.8736C4.27582 10.7242 3.82071 10.4347 3.42716 10.2266C3.26497 10.1409 3.27615 9.93403 3.4585 9.91381Z" fill="black" style="fill:black;fill-opacity:1;"/>
<path d="M12.1045 9.91381C11.5296 9.85007 10.7029 9.91657 10.4366 10.0231C8.25206 7.4355 6.54724 5.90686 3.04881 3.03286C2.98628 2.97676 2.98761 2.99863 3.03155 3.05236C3.45505 3.83865 6.93283 8.35605 9.66039 10.7622C9.4291 11.1091 9.34849 11.8688 9.36513 12.4533C9.36856 12.5739 9.61071 12.5967 9.67309 12.4935C9.94066 12.0508 10.3686 11.6127 10.5109 11.6127L11.7166 12.6462C11.8776 12.7842 12.1166 12.779 12.2716 12.6343C12.4345 12.4821 12.4486 12.2286 12.3035 12.0593L11.2872 10.8736C11.2872 10.7242 11.7423 10.4347 12.1358 10.2266C12.298 10.1409 12.2868 9.93403 12.1045 9.91381Z" fill="black" style="fill:black;fill-opacity:1;"/>
</svg>
