<svg width="16" height="16" viewBox="0 0 16 16" fill="none" xmlns="http://www.w3.org/2000/svg">
<path d="M4.98315 3.803C4.51174 3.33159 3.35812 2.96359 3.00456 3.00288C2.96527 3.35644 3.17981 4.43985 3.65122 4.91126C3.75014 5.01019 4.17455 5.32509 4.512 5.53925C4.95978 6.24012 6.56122 7.99969 7.49244 8.993C7.64958 9.18942 7.91671 9.62941 7.72815 9.81797C7.49244 10.0537 8.67097 9.70012 8.90668 9.81797C9.09524 9.91225 8.90668 10.1715 8.78882 10.2894C8.78882 10.5251 8.71811 11.0672 8.43526 11.3501C8.15242 11.6329 7.68886 11.6251 7.49244 11.5858V12.4107C7.80672 12.4893 8.50598 12.5757 8.78882 12.2929C9.07167 12.01 9.80662 11.0589 10.0816 10.7053L11.724 12.5835C12.0431 12.9027 12.3244 13 12.9137 13C12.9994 12.4612 12.9079 12.1426 12.5888 11.8235L10.6756 10.1462C11.0292 9.87123 11.9237 9.15799 12.2066 8.87514C12.4894 8.59229 12.403 7.89303 12.3244 7.57876H11.4994C11.5387 7.77518 11.5466 8.23874 11.2637 8.52158C10.9809 8.80443 10.4388 8.87514 10.2031 8.87514C10.0852 8.99299 9.82593 9.18156 9.73165 8.99299C9.6138 8.75729 9.96736 7.57876 9.73165 7.81447C9.54309 8.00303 9.1031 7.7359 8.90668 7.57876C7.9374 6.67006 6.23173 5.03993 5.52437 4.57231C5.30373 4.2089 5.09108 3.91093 4.98315 3.803Z" fill="black" style="fill:black;fill-opacity:1;"/>
</svg>
