<svg width="16" height="16" viewBox="0 0 16 16" fill="currentColor" xmlns="http://www.w3.org/2000/svg">
<path d="M9.84504 4.3805H7.32391C5.07092 4.3805 3.15479 5.63152 3.00898 7.83298C2.99906 7.98283 3.12182 8.10523 3.272 8.10523H4.79438C4.94457 8.10523 5.06417 7.98264 5.08629 7.83409C5.23971 6.80425 6.25362 6.07356 7.32391 6.07356H9.84506C9.92015 6.07356 9.98102 6.13443 9.98102 6.20952V7.11656C9.98102 7.231 10.1138 7.29425 10.2027 7.22214L12.6095 5.26938C12.6774 5.21436 12.6765 5.11059 12.6077 5.05675L10.2008 3.1721C10.1116 3.10222 9.98102 3.1658 9.98102 3.27915V4.24453C9.98102 4.31963 9.92013 4.3805 9.84504 4.3805Z" fill="currentColor"/>
<path d="M5.89691 11.6195H8.41804C10.671 11.6195 12.5872 10.3685 12.733 8.16702C12.7429 8.01717 12.6201 7.89477 12.4699 7.89477H10.9476C10.7974 7.89477 10.6778 8.01736 10.6557 8.16591C10.5022 9.19575 9.48833 9.92644 8.41804 9.92644H5.89689C5.8218 9.92644 5.76093 9.86557 5.76093 9.79048V8.88344C5.76093 8.769 5.62817 8.70575 5.5393 8.77786L3.13241 10.7306C3.06459 10.7856 3.06549 10.8894 3.13425 10.9433L5.54114 12.8279C5.63038 12.8978 5.76093 12.8342 5.76093 12.7208V11.7555C5.76093 11.6804 5.82182 11.6195 5.89691 11.6195Z" fill="currentColor"/>
</svg>
