<svg width="14" height="14" viewBox="0 0 14 14" fill="none" xmlns="http://www.w3.org/2000/svg">
<path fill-rule="evenodd" clip-rule="evenodd" d="M9.68724 7.26818C9.2981 7.65811 9.2981 8.26251 9.68724 8.65244C9.88181 8.84741 10.1348 8.94489 10.3682 8.94489C10.6017 8.94489 10.8741 8.84741 11.0492 8.65244L11.7302 7.97006C12.5085 7.19019 12.9365 6.17637 12.9365 5.08455C12.9365 3.99274 12.5085 2.95942 11.7302 2.19905C10.1348 0.600318 7.54698 0.600318 5.95151 2.19905L5.27052 2.88143C4.88138 3.27136 4.88138 3.87576 5.27052 4.26569C5.65966 4.65563 6.26282 4.65563 6.65196 4.26569L7.33295 3.58331C8.1696 2.74495 9.53159 2.74495 10.3682 3.58331C10.7768 3.99274 10.9909 4.51915 10.9909 5.10405C10.9909 5.66945 10.7768 6.21536 10.3682 6.62479L9.68724 7.26818ZM2.13807 11.8107C2.93581 12.6101 3.98648 13 5.0177 13C6.06837 13 7.11905 12.6101 7.89733 11.8107L8.57832 11.1283C8.96746 10.7384 8.96746 10.134 8.57832 9.74404C8.18918 9.35411 7.58601 9.35411 7.19688 9.74404L6.51588 10.4264C5.67923 11.2648 4.31725 11.2648 3.4806 10.4264C2.64395 9.58807 2.64395 8.2233 3.4806 7.38494L4.16159 6.70255C4.55073 6.31262 4.55073 5.70822 4.16159 5.31829C3.77245 4.92835 3.16929 4.92835 2.78015 5.31829L2.09916 6.00067C0.542602 7.6189 0.542602 10.2315 2.13807 11.8107ZM5.15395 7.40454L7.35259 5.20142C7.74173 4.83098 8.34489 4.83098 8.71457 5.20142C9.10371 5.59135 9.10371 6.19575 8.71457 6.58568L6.51594 8.78881C6.34082 8.98377 6.08788 9.08126 5.83494 9.08126C5.60146 9.08126 5.34852 8.98377 5.15395 8.78881C4.76481 8.39887 4.76481 7.79448 5.15395 7.40454Z" />
</svg>
