<svg viewBox="0 0 14 14" xmlns="http://www.w3.org/2000/svg">
<path fill-rule="evenodd" clip-rule="evenodd" d="M7.84732 2.05019L7.84732 9.92919L10.8934 6.88308C11.2005 6.57597 11.6985 6.57597 12.0056 6.88308C12.3127 7.19019 12.3127 7.68812 12.0056 7.99523L7.56857 12.4322C7.5648 12.4362 7.56098 12.4401 7.55711 12.4439C7.25 12.751 6.75208 12.751 6.44497 12.4439L6.44485 12.4438L1.99638 7.99534C1.68927 7.68823 1.68927 7.19031 1.99638 6.8832C2.30349 6.57609 2.80142 6.57609 3.10853 6.8832L6.27451 10.0492L6.27451 2.05019C6.27451 1.61587 6.6266 1.26379 7.06092 1.26379C7.49524 1.26379 7.84732 1.61587 7.84732 2.05019Z"/>
</svg>
