<svg viewBox="0 0 14 14" xmlns="http://www.w3.org/2000/svg">
<path d="M10.9425 11.8186C11.1844 12.0605 11.5766 12.0605 11.8186 11.8186C12.0605 11.5766 12.0605 11.1844 11.8186 10.9425L7.8761 7L11.8186 3.05755C12.0605 2.81562 12.0605 2.42338 11.8186 2.18145C11.5766 1.93952 11.1844 1.93952 10.9425 2.18145L7 6.1239L3.05755 2.18145C2.81562 1.93952 2.42338 1.93952 2.18145 2.18145C1.93952 2.42338 1.93952 2.81562 2.18145 3.05755L6.1239 7L2.18145 10.9425C1.93952 11.1844 1.93952 11.5766 2.18145 11.8186C2.42338 12.0605 2.81562 12.0605 3.05755 11.8186L7 7.8761L10.9425 11.8186Z" />
</svg>
