<svg viewBox="0 0 14 14" fill="none" xmlns="http://www.w3.org/2000/svg">
<path fill-rule="evenodd" clip-rule="evenodd" d="M9.69823 1.43907C10.2839 0.853644 11.2333 0.853644 11.819 1.43907L12.5565 2.17616C13.1426 2.762 13.1426 3.71217 12.5565 4.29802L4.29188 12.5584C4.0106 12.8395 3.62918 12.9975 3.23149 12.9975H1.5C1.22386 12.9975 1 12.7736 1 12.4975V10.7544C1 10.3564 1.15814 9.9748 1.43961 9.69347L9.69823 1.43907ZM11.1121 2.14636C10.9168 1.95121 10.6004 1.95121 10.4052 2.14636L2.14654 10.4008C2.05271 10.4945 2 10.6217 2 10.7544V11.9975H3.23149C3.36406 11.9975 3.49119 11.9448 3.58495 11.8511L11.8495 3.59073C12.0449 3.39545 12.0449 3.07873 11.8495 2.88344L11.1121 2.14636Z" />
</svg>
