<svg width="28" height="28" viewBox="0 0 28 28" fill="none" xmlns="http://www.w3.org/2000/svg">
<g clip-path="url(#clip0_1508_3021)">
<mask id="path-1-outside-1_1508_3021" maskUnits="userSpaceOnUse" x="-2.00398" y="-4.76661" width="30.9999" height="38.1141" fill="black">
<rect fill="white" x="-2.00398" y="-4.76661" width="30.9999" height="38.1141"/>
<path d="M9 9.5C5.56759 11.5539 4.27486 21.0271 4.5 24C4.68381 26.427 5.87504 19.5 14 17C20.5 15 23.2229 8.54377 24 3.99998C18.5 9.08683 13.2905 6.9326 9 9.5Z"/>
</mask>
<path d="M4.5 24L7.49144 23.7735L7.49144 23.7735L4.5 24ZM9 9.5L10.5404 12.0743L10.5404 12.0743L9 9.5ZM24 3.99998L26.9571 4.50572C27.1737 3.23917 26.5596 1.97531 25.4301 1.36278C24.3006 0.750248 22.9063 0.925081 21.963 1.79755L24 3.99998ZM14 17L13.1178 14.1327L13.1178 14.1327L14 17ZM7.49144 23.7735C7.40977 22.6951 7.61743 19.9121 8.2945 17.11C8.62613 15.7375 9.03949 14.4952 9.51036 13.5357C10.0147 12.508 10.4183 12.1474 10.5404 12.0743L7.45956 6.9257C5.86546 7.87959 4.82037 9.47332 4.12398 10.8924C3.39413 12.3797 2.8548 14.0766 2.46234 15.7008C1.69123 18.892 1.36509 22.332 1.50857 24.2266L7.49144 23.7735ZM10.5404 12.0743C12.0462 11.1733 13.5308 11.1521 16.5364 10.6545C19.3667 10.1859 22.6896 9.29832 26.037 6.2024L21.963 1.79755C19.8104 3.78849 17.7786 4.36718 15.5564 4.73507C13.5097 5.07392 10.2443 5.25931 7.45956 6.9257L10.5404 12.0743ZM21.0429 3.49423C20.3319 7.65175 17.9753 12.6381 13.1178 14.1327L14.8823 19.8673C23.0248 17.362 26.1139 9.43579 26.9571 4.50572L21.0429 3.49423ZM13.1178 14.1327C8.28762 15.6189 5.48064 18.4519 3.8924 20.5209C3.50144 21.0301 3.18847 21.4875 2.95065 21.8431C2.80684 22.0581 2.75806 22.1336 2.65767 22.2832C2.61942 22.3401 2.59019 22.3829 2.56704 22.4161C2.55579 22.4322 2.54729 22.4441 2.54115 22.4526C2.53496 22.4611 2.53237 22.4645 2.53294 22.4637C2.53341 22.4631 2.53891 22.4559 2.54894 22.4436C2.55876 22.4316 2.57615 22.4108 2.60048 22.3839C2.63932 22.3409 2.74532 22.2266 2.91185 22.0976C3.0769 21.9698 4.47102 20.9476 6.12346 21.8981C6.76882 22.2692 7.09216 22.7774 7.22857 23.0325C7.37195 23.3006 7.4331 23.5225 7.45553 23.6108C7.49968 23.7848 7.49924 23.8765 7.49144 23.7735L1.50857 24.2266C1.52374 24.4269 1.55414 24.7489 1.63991 25.0868C1.68314 25.2572 1.76779 25.5444 1.93772 25.8622C2.10068 26.1669 2.45361 26.7089 3.13199 27.0991C4.85047 28.0875 6.32428 27.0438 6.58557 26.8414C6.96337 26.5488 7.21706 26.2161 7.30575 26.0997C7.51245 25.8284 7.77691 25.4195 7.93797 25.1787C8.14335 24.8717 8.3745 24.5356 8.65174 24.1744C9.73632 22.7616 11.5875 20.8811 14.8823 19.8673L13.1178 14.1327Z" fill="black" mask="url(#path-1-outside-1_1508_3021)"/>
</g>
<defs>
<clipPath id="clip0_1508_3021">
<rect width="28" height="28" fill="white"/>
</clipPath>
</defs>
</svg>
