<svg viewBox="0 0 28 28" fill="none" xmlns="http://www.w3.org/2000/svg">
<path fill-rule="evenodd" clip-rule="evenodd" d="M1.49997 27.5C-0.500051 27.5 1.14279 17.8454 1.78667 15.9435C2.37392 14.2088 3.10735 12.4293 3.96802 10.8994C4.77642 9.46249 5.91051 7.85264 7.45945 6.92577C9.76438 5.54652 12.3986 5.18186 14.3985 4.905C14.8148 4.84736 15.2037 4.79353 15.5563 4.73515C17.7785 4.36726 19.8103 3.78856 21.9629 1.79762C22.9062 0.925157 24.3004 0.750323 25.43 1.36285C26.5595 1.97538 27.1736 3.23925 26.957 4.5058C26.1138 9.43587 23.0247 17.362 14.8822 19.8674C2.17635 23.7769 3.5 27.5 1.49997 27.5Z" />
</svg>
