<svg viewBox="0 0 14 14" fill="none" xmlns="http://www.w3.org/2000/svg">
<path fill-rule="evenodd" clip-rule="evenodd" d="M1 1.5C1 1.22386 1.22386 1 1.5 1H12.5C12.7761 1 13 1.22386 13 1.5C13 1.77614 12.7761 2 12.5 2H1.5C1.22386 2 1 1.77614 1 1.5ZM1 6.5C1 6.22386 1.22386 6 1.5 6H12.5C12.7761 6 13 6.22386 13 6.5C13 6.77614 12.7761 7 12.5 7H1.5C1.22386 7 1 6.77614 1 6.5ZM1.5 11C1.22386 11 1 11.2239 1 11.5C1 11.7761 1.22386 12 1.5 12H12.5C12.7761 12 13 11.7761 13 11.5C13 11.2239 12.7761 11 12.5 11H1.5Z" fill="black"/>
</svg>
