<svg viewBox="0 0 14 14" xmlns="http://www.w3.org/2000/svg">
<path fill-rule="evenodd" clip-rule="evenodd" d="M3.625 4.27273C3.625 2.46525 5.13604 1 7 1C8.86396 1 10.375 2.46525 10.375 4.27273V6.45455H10.4056C11.01 6.45455 11.5 6.94454 11.5 7.54897V11.9056C11.5 12.51 11.01 13 10.4056 13H3.59443C2.98999 13 2.5 12.51 2.5 11.9056V7.54897C2.5 6.94454 2.98999 6.45455 3.59443 6.45455H3.625V4.27273ZM5.3125 6.45455H8.6875V4.27273C8.6875 3.4678 8.30444 2.63636 7 2.63636C5.69557 2.63636 5.3125 3.45827 5.3125 4.27273V6.45455Z" />
</svg>
