<svg viewBox="0 0 14 14" fill="none" xmlns="http://www.w3.org/2000/svg">
<path fill-rule="evenodd" clip-rule="evenodd" d="M7.04515 9.5C8.42586 9.5 9.54515 8.38071 9.54515 7C9.54515 5.61929 8.42586 4.5 7.04515 4.5C5.66444 4.5 4.54515 5.61929 4.54515 7C4.54515 8.38071 5.66444 9.5 7.04515 9.5ZM7.04515 8.5C7.87358 8.5 8.54515 7.82843 8.54515 7C8.54515 6.17157 7.87358 5.5 7.04515 5.5C6.21672 5.5 5.54515 6.17157 5.54515 7C5.54515 7.82843 6.21672 8.5 7.04515 8.5Z" />
<path d="M13.2118 6.44776C10.1648 1.67656 4.08822 1.61674 0.814821 6.43618C0.611758 6.73515 0.607725 7.12607 0.803991 7.42954C3.9948 12.3633 10.0268 12.435 13.2119 7.41171C13.3986 7.11736 13.3994 6.7415 13.2118 6.44776Z" stroke-linejoin="round"/>
</svg>
