<svg viewBox="0 0 14 14" fill="none" xmlns="http://www.w3.org/2000/svg">
<path fill-rule="evenodd" clip-rule="evenodd" d="M5.50019 2.00047C5.18025 2.00132 4.83617 2.00371 4.51209 2.01042C3.93815 2.0223 3.42693 2.04775 3.22357 2.10224C2.1883 2.37964 1.37965 3.18828 1.10225 4.22356C1.04775 4.42694 1.02231 4.93829 1.01043 5.51233C1.00003 6.01504 1.00003 6.56583 1.00003 7.00001C1.00003 7.43419 1.00003 7.98498 1.01043 8.48769C1.02231 9.06174 1.04775 9.57308 1.10225 9.77647C1.36232 10.747 2.08929 11.5184 3.03219 11.8396C3.09505 11.861 3.15887 11.8805 3.22357 11.8978C3.42692 11.9523 3.9381 11.9777 4.51201 11.9896C4.7811 11.9952 5.06399 11.9978 5.33539 11.999L4.73226 12.6021C4.537 12.7974 4.537 13.1139 4.73226 13.3092C4.92752 13.5045 5.24411 13.5045 5.43937 13.3092L6.85358 11.895C6.95385 11.7947 7.00263 11.6625 6.99992 11.5311C7.00263 11.3997 6.95385 11.2674 6.85358 11.1672L5.43937 9.75295C5.24411 9.55769 4.92752 9.55769 4.73226 9.75295C4.537 9.94822 4.537 10.2648 4.73226 10.4601L5.27027 10.9981C5.01654 10.9966 4.7638 10.994 4.53092 10.9898C4.01686 10.9805 3.59961 10.9633 3.48239 10.9319C2.83534 10.7585 2.32109 10.2738 2.10695 9.64524C2.09268 9.60333 2.07974 9.56079 2.06818 9.51765C2.03675 9.40038 2.01952 8.98285 2.01025 8.4685C2.00195 8.00794 2.00003 7.46976 2.00003 7.00001C2.00003 6.53027 2.00195 5.99208 2.01025 5.53152C2.01952 5.01718 2.03676 4.59965 2.06818 4.48238C2.25311 3.79219 2.79221 3.2531 3.48239 3.06816C3.59963 3.03675 4.01694 3.01951 4.53106 3.01024C4.83429 3.00477 5.17118 3.00206 5.50006 3.00086C5.7762 2.99984 6.00003 2.77615 6.00003 2.50001C6.00003 2.22386 5.77633 1.99974 5.50019 2.00047Z"/>
<path fill-rule="evenodd" clip-rule="evenodd" d="M10.7765 11.8999C10.462 11.9842 9.40436 11.9981 8.52156 12.0003L8.4928 12.0004L8.48903 12.0004C8.21325 12.001 7.98986 11.7772 7.98986 11.5015C7.98986 11.2265 8.21208 11.0036 8.48675 11.0013L8.48916 11.0013L8.51572 11.0012C9.39725 10.9977 10.333 10.9834 10.5176 10.934C11.2078 10.749 11.7469 10.2099 11.9319 9.51976C11.9633 9.40248 11.9805 8.98495 11.9898 8.47061C11.9981 8.01005 12 7.47186 12 7.00212C12 6.53237 11.9981 5.99419 11.9898 5.53363C11.9805 5.01928 11.9633 4.60175 11.9319 4.48448C11.9203 4.44134 11.9074 4.3988 11.8931 4.35689C11.6789 3.72829 11.1647 3.24364 10.5176 3.07026C10.4004 3.03886 9.98317 3.02162 9.46911 3.01235C9.23664 3.00815 8.98438 3.00559 8.7311 3.00407L9.26777 3.54074C9.46303 3.736 9.46303 4.05258 9.26777 4.24784C9.0725 4.44311 8.75592 4.44311 8.56066 4.24784L7.14645 2.83363C7.04618 2.73336 6.9974 2.60111 7.00011 2.46972C6.9974 2.33833 7.04618 2.20607 7.14645 2.1058L8.56066 0.69159C8.75592 0.496328 9.0725 0.496328 9.26777 0.69159C9.46303 0.886852 9.46303 1.20343 9.26777 1.3987L8.66331 2.00316C8.93512 2.00436 9.21849 2.00695 9.48802 2.01253C10.0619 2.02441 10.5731 2.04985 10.7765 2.10434C10.8412 2.12168 10.905 2.14109 10.9678 2.1625C11.9107 2.48371 12.6377 3.25509 12.8978 4.22566C12.9523 4.42905 12.9777 4.94039 12.9896 5.51444C13 6.01715 13 6.56794 13 7.00212C13 7.43629 13 7.98709 12.9896 8.48979C12.9777 9.06384 12.9523 9.57519 12.8978 9.77857C12.6204 10.8139 11.8117 11.6225 10.7765 11.8999Z"/>
</svg>
