<svg viewBox="0 0 12 12" xmlns="http://www.w3.org/2000/svg">
<path fill-rule="evenodd" clip-rule="evenodd" d="M4.53346 11.6808C4.53727 11.721 4.56523 11.7551 4.60392 11.7668C5.63331 12.077 6.26393 12.0786 7.33055 11.7662C7.36922 11.7549 7.39746 11.7211 7.40171 11.6811L7.52469 10.521C7.52877 10.4825 7.55474 10.4499 7.59114 10.4367C8.12587 10.2426 8.61594 9.95528 9.04172 9.59447C9.07136 9.56935 9.11273 9.56305 9.14824 9.57882L10.2191 10.0544C10.2559 10.0708 10.2992 10.0632 10.3284 10.0354C11.1323 9.26788 11.4462 8.72093 11.6922 7.67434C11.7014 7.635 11.6859 7.59372 11.6529 7.57031L10.6947 6.88936C10.6629 6.86673 10.6472 6.82766 10.654 6.78919C10.701 6.52077 10.7255 6.24461 10.7255 5.96273C10.7255 5.68133 10.7011 5.40563 10.6542 5.13764C10.6476 5.09959 10.6628 5.06092 10.694 5.03818L11.5605 4.40746C11.5908 4.3854 11.6062 4.34782 11.6002 4.31083C11.4184 3.19009 11.1167 2.65059 10.2306 1.93761C10.2013 1.91403 10.1609 1.90894 10.1267 1.92459L9.16907 2.36302C9.13318 2.37945 9.09105 2.37316 9.06107 2.34748C8.62657 1.9753 8.12418 1.68008 7.57504 1.48297C7.53848 1.46984 7.51235 1.43717 7.50825 1.39854L7.40113 0.388099C7.39718 0.350832 7.37234 0.318703 7.3373 0.305405C6.27578 -0.0974674 5.65771 -0.105941 4.59724 0.304893C4.56216 0.318482 4.53752 0.350984 4.53398 0.388433L4.43903 1.39286C4.43533 1.43205 4.40894 1.46534 4.37184 1.47853C3.82729 1.67229 3.32844 1.96242 2.89581 2.32841C2.86585 2.35376 2.82397 2.35988 2.78829 2.34354L1.87322 1.92459C1.83902 1.90893 1.79855 1.91402 1.76925 1.9376C0.883217 2.65059 0.581519 3.19009 0.399658 4.31083C0.393655 4.34782 0.409058 4.3854 0.439357 4.40745L1.24799 4.99607C1.27948 5.01899 1.29471 5.0581 1.28766 5.09641C1.23599 5.37733 1.20898 5.66688 1.20898 5.96273C1.20898 6.25876 1.23602 6.54848 1.28775 6.82955C1.29488 6.86827 1.27925 6.90777 1.24715 6.93058L0.346963 7.57031C0.314023 7.59372 0.298439 7.63501 0.307687 7.67435C0.553719 8.72093 0.86761 9.26788 1.67149 10.0354C1.70064 10.0632 1.744 10.0708 1.78083 10.0544L2.80882 9.59785C2.84413 9.58217 2.88525 9.5883 2.91488 9.6131C3.33927 9.96834 3.82654 10.251 4.35756 10.4418C4.3945 10.4551 4.42075 10.4883 4.42444 10.5274L4.53346 11.6808ZM5.96726 7.86603C7.01842 7.86603 7.87056 7.0139 7.87056 5.96273C7.87056 4.91157 7.01842 4.05943 5.96726 4.05943C4.91609 4.05943 4.06395 4.91157 4.06395 5.96273C4.06395 7.0139 4.91609 7.86603 5.96726 7.86603Z" />
</svg>
