<svg width="14" height="14" viewBox="0 0 14 14" fill="none" xmlns="http://www.w3.org/2000/svg">
<mask id="path-1-inside-1_1015_3618" fill="white">
<path fill-rule="evenodd" clip-rule="evenodd" d="M5.53346 12.6808C5.53727 12.721 5.56523 12.7551 5.60392 12.7668C6.63331 13.077 7.26393 13.0786 8.33055 12.7662C8.36922 12.7549 8.39746 12.7211 8.40171 12.6811L8.52469 11.521C8.52877 11.4825 8.55474 11.4499 8.59114 11.4367C9.12587 11.2426 9.61594 10.9553 10.0417 10.5945C10.0714 10.5693 10.1127 10.5631 10.1482 10.5788L11.2191 11.0544C11.2559 11.0708 11.2992 11.0632 11.3284 11.0354C12.1323 10.2679 12.4462 9.72093 12.6922 8.67434C12.7014 8.635 12.6859 8.59372 12.6529 8.57031L11.6947 7.88936C11.6629 7.86673 11.6472 7.82766 11.654 7.78919C11.701 7.52077 11.7255 7.24461 11.7255 6.96273C11.7255 6.68133 11.7011 6.40563 11.6542 6.13764C11.6476 6.09959 11.6628 6.06092 11.694 6.03818L12.5605 5.40746C12.5908 5.3854 12.6062 5.34782 12.6002 5.31083C12.4184 4.19009 12.1167 3.65059 11.2306 2.93761C11.2013 2.91403 11.1609 2.90894 11.1267 2.92459L10.1691 3.36302C10.1332 3.37945 10.091 3.37316 10.0611 3.34748C9.62657 2.9753 9.12418 2.68008 8.57504 2.48297C8.53848 2.46984 8.51235 2.43717 8.50825 2.39854L8.40113 1.3881C8.39718 1.35083 8.37234 1.3187 8.3373 1.3054C7.27578 0.902533 6.65771 0.894059 5.59724 1.30489C5.56216 1.31848 5.53752 1.35098 5.53398 1.38843L5.43903 2.39286C5.43533 2.43205 5.40894 2.46534 5.37184 2.47853C4.82729 2.67229 4.32844 2.96242 3.89581 3.32841C3.86585 3.35376 3.82397 3.35988 3.78829 3.34354L2.87322 2.92459C2.83902 2.90893 2.79855 2.91402 2.76925 2.9376C1.88322 3.65059 1.58152 4.19009 1.39966 5.31083C1.39365 5.34782 1.40906 5.3854 1.43936 5.40745L2.24799 5.99607C2.27948 6.01899 2.29471 6.0581 2.28766 6.09641C2.23599 6.37733 2.20898 6.66688 2.20898 6.96273C2.20898 7.25876 2.23602 7.54848 2.28775 7.82955C2.29488 7.86827 2.27925 7.90777 2.24715 7.93058L1.34696 8.57031C1.31402 8.59372 1.29844 8.63501 1.30769 8.67435C1.55372 9.72093 1.86761 10.2679 2.67149 11.0354C2.70064 11.0632 2.744 11.0708 2.78083 11.0544L3.80882 10.5979C3.84413 10.5822 3.88525 10.5883 3.91488 10.6131C4.33927 10.9683 4.82654 11.251 5.35756 11.4418C5.3945 11.4551 5.42075 11.4883 5.42444 11.5274L5.53346 12.6808ZM6.96726 8.86603C8.01842 8.86603 8.87056 8.0139 8.87056 6.96273C8.87056 5.91157 8.01842 5.05943 6.96726 5.05943C5.91609 5.05943 5.06395 5.91157 5.06395 6.96273C5.06395 8.0139 5.91609 8.86603 6.96726 8.86603Z"/>
</mask>
<path d="M5.35756 11.4418L5.6958 10.5008L5.35756 11.4418ZM5.42444 11.5274L6.42 11.4333L5.42444 11.5274ZM1.34696 8.57031L0.767684 7.75518L1.34696 8.57031ZM1.30769 8.67435L0.334224 8.90319L1.30769 8.67435ZM2.28775 7.82955L1.30427 8.01056L2.28775 7.82955ZM2.24715 7.93058L2.82643 8.74571L2.24715 7.93058ZM2.24799 5.99607L2.8365 5.18758L2.24799 5.99607ZM2.28766 6.09641L1.30416 5.9155L2.28766 6.09641ZM1.39966 5.31083L0.412569 5.15065L1.39966 5.31083ZM1.43936 5.40745L2.02787 4.59896L1.43936 5.40745ZM2.87322 2.92459L2.45694 3.83382L2.87322 2.92459ZM3.89581 3.32841L3.24995 2.56496L3.89581 3.32841ZM3.78829 3.34354L3.37201 4.25278L3.78829 3.34354ZM5.37184 2.47853L5.03663 1.53639L5.37184 2.47853ZM5.59724 1.30489L5.95848 2.23736L5.59724 1.30489ZM5.53398 1.38843L4.53841 1.29433L5.53398 1.38843ZM8.40113 1.3881L7.4067 1.49352L8.40113 1.3881ZM8.3373 1.30541L8.69213 0.370474L8.3373 1.30541ZM8.57504 2.48297L8.91289 1.54177L8.57504 2.48297ZM8.50825 2.39854L7.51382 2.50396L8.50825 2.39854ZM11.2306 2.93761L10.6037 3.71669L11.2306 2.93761ZM11.1267 2.92459L11.5429 3.83383L11.1267 2.92459ZM12.5605 5.40746L13.149 6.21595L12.5605 5.40746ZM12.6002 5.31083L11.6131 5.471L12.6002 5.31083ZM11.6542 6.13764L10.6692 6.30985L11.6542 6.13764ZM11.694 6.03818L12.2826 6.84667L11.694 6.03818ZM11.6947 7.88936L11.1155 8.70449L11.6947 7.88936ZM11.654 7.78919L12.639 7.96169L11.654 7.78919ZM12.6922 8.67434L11.7187 8.4455L12.6922 8.67434ZM12.6529 8.57031L13.2322 7.75518L12.6529 8.57031ZM11.2191 11.0544L10.8131 11.9683L11.2191 11.0544ZM11.3284 11.0354L10.6378 10.3121L11.3284 11.0354ZM10.0417 10.5945L10.6882 11.3574L10.0417 10.5945ZM10.1482 10.5788L10.5542 9.66491L10.1482 10.5788ZM8.52469 11.521L9.51912 11.6264L8.52469 11.521ZM8.59114 11.4367L8.93239 12.3767L8.59114 11.4367ZM3.80882 10.5979L4.21474 11.5118L3.80882 10.5979ZM3.91488 10.6131L3.273 11.3799L3.91488 10.6131ZM5.60392 12.7668L5.89247 11.8093L5.60392 12.7668ZM5.53346 12.6808L4.5379 12.7749L5.53346 12.6808ZM10.1691 3.36302L10.5853 4.27225L10.1691 3.36302ZM10.0611 3.34748L10.7116 2.58801L10.0611 3.34748ZM2.67149 11.0354L3.36205 10.3121L2.67149 11.0354ZM2.78083 11.0544L3.18674 11.9683L2.78083 11.0544ZM8.33055 12.7662L8.04944 11.8065L8.33055 12.7662ZM8.40171 12.6811L9.39614 12.7865L8.40171 12.6811ZM8.04944 11.8065C7.56645 11.948 7.24301 12.0001 6.95359 12C6.66578 11.9999 6.35333 11.9482 5.89247 11.8093L5.31537 13.7243C5.8839 13.8956 6.40145 13.9998 6.95295 14C7.50285 14.0002 8.02802 13.8969 8.61165 13.7259L8.04944 11.8065ZM7.53026 11.4156L7.40728 12.5756L9.39614 12.7865L9.51912 11.6264L7.53026 11.4156ZM9.39522 9.83155C9.05836 10.117 8.67131 10.3437 8.24988 10.4967L8.93239 12.3767C9.58044 12.1414 10.1735 11.7935 10.6882 11.3574L9.39522 9.83155ZM11.625 10.1405L10.5542 9.66491L9.74233 11.4927L10.8131 11.9683L11.625 10.1405ZM11.7187 8.4455C11.6086 8.91406 11.4971 9.2105 11.3533 9.45979C11.2087 9.71048 11.0019 9.96456 10.6378 10.3121L12.0189 11.7587C12.4588 11.3387 12.8109 10.9356 13.0857 10.4592C13.3613 9.98154 13.5298 9.48121 13.6657 8.90318L11.7187 8.4455ZM11.1155 8.70449L12.0736 9.38544L13.2322 7.75518L12.274 7.07423L11.1155 8.70449ZM10.7255 6.96273C10.7255 7.18654 10.706 7.40498 10.669 7.61669L12.639 7.96169C12.6959 7.63656 12.7255 7.30269 12.7255 6.96273H10.7255ZM10.6692 6.30985C10.7061 6.52123 10.7255 6.73931 10.7255 6.96273H12.7255C12.7255 6.62335 12.696 6.29003 12.6393 5.96543L10.6692 6.30985ZM11.972 4.59897L11.1055 5.22969L12.2826 6.84667L13.149 6.21595L11.972 4.59897ZM10.6037 3.71669C10.9957 4.03216 11.189 4.25434 11.3121 4.46899C11.4364 4.68551 11.5315 4.96762 11.6131 5.471L13.5873 5.15066C13.4871 4.5333 13.3404 3.9853 13.0469 3.47363C12.7522 2.9601 12.3516 2.55604 11.8576 2.15853L10.6037 3.71669ZM10.5853 4.27225L11.5429 3.83383L10.7104 2.01536L9.75278 2.45378L10.5853 4.27225ZM8.2372 3.42417C8.66996 3.57951 9.06675 3.81248 9.41053 4.10695L10.7116 2.58801C10.1864 2.13812 9.5784 1.78065 8.91289 1.54177L8.2372 3.42417ZM7.4067 1.49352L7.51382 2.50396L9.50268 2.29312L9.39556 1.28268L7.4067 1.49352ZM5.95848 2.23736C6.4277 2.05559 6.71672 1.99934 6.9642 2.00001C7.21383 2.00067 7.50569 2.05938 7.98247 2.24034L8.69213 0.370474C8.1074 0.148553 7.55946 0.0015912 6.96955 1.28794e-05C6.3775 -0.00157118 5.82725 0.143365 5.23599 0.372422L5.95848 2.23736ZM6.43459 2.48697L6.52954 1.48254L4.53841 1.29433L4.44347 2.29875L6.43459 2.48697ZM4.54167 4.09187C4.88395 3.80231 5.27792 3.57336 5.70706 3.42067L5.03663 1.53639C4.37666 1.77121 3.77292 2.12254 3.24995 2.56496L4.54167 4.09187ZM2.45694 3.83382L3.37201 4.25278L4.20457 2.4343L3.28951 2.01535L2.45694 3.83382ZM2.38675 5.471C2.46843 4.96762 2.56352 4.6855 2.68775 4.46899C2.81092 4.25433 3.00414 4.03215 3.39617 3.71669L2.14233 2.15852C1.64833 2.55604 1.24768 2.9601 0.953029 3.47363C0.659441 3.98529 0.512747 4.5333 0.412569 5.15065L2.38675 5.471ZM2.8365 5.18758L2.02787 4.59896L0.850846 6.21594L1.65948 6.80456L2.8365 5.18758ZM3.20898 6.96273C3.20898 6.72784 3.23041 6.49884 3.27116 6.27732L1.30416 5.9155C1.24156 6.25581 1.20898 6.60591 1.20898 6.96273H3.20898ZM3.27123 7.64853C3.23044 7.42689 3.20898 7.19776 3.20898 6.96273H1.20898C1.20898 7.31977 1.2416 7.67007 1.30427 8.01056L3.27123 7.64853ZM1.92624 9.38544L2.82643 8.74571L1.66787 7.11545L0.767684 7.75518L1.92624 9.38544ZM3.36205 10.3121C2.99803 9.96456 2.79121 9.71048 2.64658 9.4598C2.50275 9.2105 2.3913 8.91406 2.28115 8.4455L0.334224 8.90319C0.470106 9.48122 0.638613 9.98155 0.914212 10.4592C1.18901 10.9356 1.54107 11.3387 1.98094 11.7587L3.36205 10.3121ZM3.4029 9.68394L2.37491 10.1405L3.18674 11.9683L4.21474 11.5118L3.4029 9.68394ZM5.6958 10.5008C5.27731 10.3503 4.8925 10.1273 4.55675 9.84629L3.273 11.3799C3.78604 11.8094 4.37576 12.1516 5.01932 12.3829L5.6958 10.5008ZM6.52903 12.5867L6.42 11.4333L4.42888 11.6215L4.5379 12.7749L6.52903 12.5867ZM7.87056 6.96273C7.87056 7.46161 7.46614 7.86603 6.96726 7.86603V9.86603C8.5707 9.86603 9.87056 8.56618 9.87056 6.96273H7.87056ZM6.96726 6.05943C7.46614 6.05943 7.87056 6.46385 7.87056 6.96273H9.87056C9.87056 5.35928 8.5707 4.05943 6.96726 4.05943V6.05943ZM6.06395 6.96273C6.06395 6.46385 6.46838 6.05943 6.96726 6.05943V4.05943C5.36381 4.05943 4.06395 5.35928 4.06395 6.96273H6.06395ZM6.96726 7.86603C6.46838 7.86603 6.06395 7.46161 6.06395 6.96273H4.06395C4.06395 8.56618 5.36381 9.86603 6.96726 9.86603V7.86603ZM5.01932 12.3829C4.69891 12.2677 4.46239 11.976 4.42888 11.6215L6.42 11.4333C6.37911 11.0006 6.09009 10.6425 5.6958 10.5008L5.01932 12.3829ZM0.767684 7.75518C0.403262 8.01416 0.231964 8.46819 0.334224 8.90319L2.28115 8.4455C2.36491 8.80183 2.22478 9.17328 1.92624 9.38544L0.767684 7.75518ZM1.30427 8.01056C1.24242 7.67453 1.37675 7.32234 1.66787 7.11545L2.82643 8.74571C3.18174 8.49321 3.34733 8.06201 3.27123 7.64853L1.30427 8.01056ZM1.65948 6.80456C1.37384 6.59663 1.243 6.24799 1.30416 5.9155L3.27116 6.27732C3.34641 5.86821 3.18513 5.44135 2.8365 5.18758L1.65948 6.80456ZM0.412569 5.15065C0.346358 5.55868 0.514725 5.97127 0.850846 6.21594L2.02787 4.59896C2.30339 4.79952 2.44095 5.13695 2.38675 5.471L0.412569 5.15065ZM3.28951 2.01535C2.91015 1.84167 2.46596 1.8981 2.14233 2.15852L3.39617 3.71669C3.13115 3.92995 2.7679 3.97619 2.45694 3.83382L3.28951 2.01535ZM3.24995 2.56496C3.51001 2.34495 3.88094 2.28614 4.20457 2.4343L3.37201 4.25278C3.767 4.43362 4.22168 4.36257 4.54167 4.09187L3.24995 2.56496ZM4.44347 2.29875C4.47708 1.94318 4.71489 1.65087 5.03663 1.53639L5.70706 3.42067C6.10298 3.27981 6.39357 2.92092 6.43459 2.48697L4.44347 2.29875ZM5.23599 0.372422C4.84864 0.522484 4.57768 0.878951 4.53841 1.29433L6.52954 1.48254C6.49735 1.82302 6.27568 2.11448 5.95848 2.23736L5.23599 0.372422ZM9.39556 1.28268C9.35173 0.869258 9.07861 0.51715 8.69213 0.370474L7.98247 2.24034C7.66607 2.12025 7.44263 1.83241 7.4067 1.49352L9.39556 1.28268ZM8.91289 1.54177C9.23012 1.65564 9.46553 1.94268 9.50268 2.29312L7.51382 2.50396C7.55916 2.93166 7.84683 3.28405 8.2372 3.42417L8.91289 1.54177ZM11.8576 2.15853C11.5339 1.8981 11.0897 1.84167 10.7104 2.01536L11.5429 3.83383C11.232 3.9762 10.8687 3.92995 10.6037 3.71669L11.8576 2.15853ZM13.149 6.21595C13.4852 5.97128 13.6535 5.55869 13.5873 5.15066L11.6131 5.471C11.5589 5.13695 11.6965 4.79952 11.972 4.59897L13.149 6.21595ZM12.6393 5.96543C12.697 6.29572 12.5658 6.64049 12.2826 6.84667L11.1055 5.22969C10.7598 5.48134 10.5981 5.90346 10.6692 6.30985L12.6393 5.96543ZM12.274 7.07423C12.5628 7.27943 12.6975 7.62781 12.639 7.96169L10.669 7.61669C10.597 8.02752 10.763 8.45404 11.1155 8.70449L12.274 7.07423ZM13.6657 8.90318C13.7679 8.46818 13.5966 8.01416 13.2322 7.75518L12.0736 9.38544C11.7751 9.17328 11.635 8.80182 11.7187 8.4455L13.6657 8.90318ZM10.8131 11.9683C11.2211 12.1495 11.6973 12.0658 12.0189 11.7587L10.6378 10.3121C10.9012 10.0606 11.2907 9.99206 11.625 10.1405L10.8131 11.9683ZM10.6882 11.3574C10.4309 11.5755 10.0644 11.6358 9.74233 11.4927L10.5542 9.66491C10.1611 9.49032 9.71186 9.56323 9.39522 9.83155L10.6882 11.3574ZM9.51912 11.6264C9.4821 11.9757 9.24814 12.262 8.93239 12.3767L8.24988 10.4967C7.86135 10.6378 7.57545 10.9893 7.53026 11.4156L9.51912 11.6264ZM4.21474 11.5118C3.89451 11.654 3.53022 11.5952 3.273 11.3799L4.55675 9.84629C4.24029 9.58138 3.79374 9.51035 3.4029 9.68394L4.21474 11.5118ZM5.89247 11.8093C6.24294 11.9149 6.49456 12.222 6.52903 12.5867L4.5379 12.7749C4.57997 13.22 4.88752 13.5953 5.31537 13.7243L5.89247 11.8093ZM9.75278 2.45378C10.0783 2.30476 10.4514 2.36515 10.7116 2.58801L9.41053 4.10695C9.73065 4.38117 10.1881 4.45414 10.5853 4.27225L9.75278 2.45378ZM1.98094 11.7587C2.30261 12.0658 2.77883 12.1495 3.18674 11.9683L2.37491 10.1405C2.70916 9.99207 3.09867 10.0606 3.36205 10.3121L1.98094 11.7587ZM8.61165 13.7259C9.03846 13.6009 9.34909 13.2303 9.39614 12.7865L7.40728 12.5756C7.44584 12.2119 7.69998 11.9089 8.04944 11.8065L8.61165 13.7259Z" fill="black" mask="url(#path-1-inside-1_1015_3618)"/>
</svg>
