<svg  viewBox="0 0 28 28" xmlns="http://www.w3.org/2000/svg">
<path d="M21.8867 18.2719L21.8994 18.2445L21.9109 18.2165C23.5986 14.1396 24.2687 9.48442 24.4473 6.37605C24.5467 4.64432 23.3192 3.18319 21.6806 2.875C15.8289 1.77447 11.9441 1.79402 6.30801 2.87175C4.67372 3.18425 3.45305 4.64391 3.55426 6.37163C3.73153 9.39788 4.38612 14.0994 6.08889 18.2161C6.87291 20.1117 7.94937 22.0403 9.20943 23.5242C10.4151 24.9441 12.0583 26.2692 14 26.2692C15.9869 26.2692 17.615 24.852 18.7848 23.4315C20.0173 21.935 21.0766 20.0255 21.8867 18.2719Z" />
</svg>
