<svg viewBox="0 0 28 28" xmlns="http://www.w3.org/2000/svg">
<path fill-rule="evenodd" clip-rule="evenodd" d="M23.2485 18.9009L23.2738 18.8461L23.2969 18.7903C25.0719 14.5024 25.7609 9.66488 25.9448 6.46207C26.0895 3.94417 24.3044 1.84216 21.9579 1.40085C15.9228 0.265829 11.8484 0.285157 6.02633 1.39844C3.68545 1.84606 1.90969 3.9468 2.05687 6.45935C2.23934 9.57444 2.91185 14.4595 4.70282 18.7895C5.52785 20.7841 6.67748 22.8599 8.06609 24.4951C9.34592 26.0023 11.3727 27.7692 14 27.7692C16.7045 27.7692 18.7211 25.8684 19.9427 24.385C21.2895 22.7497 22.4117 20.7123 23.2485 18.9009Z" />
</svg>
