<svg viewBox="0 0 14 14" xmlns="http://www.w3.org/2000/svg">
<path fill-rule="evenodd" clip-rule="evenodd" d="M13.9358 6.38178C14.0712 6.14109 13.9858 5.83624 13.7451 5.70088C13.5044 5.56552 13.1996 5.6509 13.0642 5.89159C11.5427 8.59686 9.24574 9.87242 7.00066 9.86173C4.753 9.85102 2.45409 8.5506 0.934206 5.88876C0.79728 5.64896 0.49188 5.56556 0.252076 5.70248C0.012272 5.83941 -0.0711275 6.14481 0.0657981 6.38461C0.666775 7.43713 1.38868 8.31027 2.19043 8.99743C2.16108 9.0253 2.13467 9.0572 2.11204 9.09296L1.57636 9.93929C1.42867 10.1726 1.4981 10.4815 1.73143 10.6292C1.96476 10.7769 2.27364 10.7074 2.42132 10.4741L2.957 9.62777C2.96384 9.61698 2.9702 9.60602 2.97611 9.59493C3.33838 9.83773 3.71284 10.0462 4.09629 10.2199C4.08317 10.2433 4.07177 10.268 4.0623 10.2941L3.71972 11.2353C3.62528 11.4948 3.75907 11.7817 4.01856 11.8761C4.27805 11.9706 4.56497 11.8368 4.65942 11.5773L5.00199 10.6361C5.01037 10.613 5.01695 10.5898 5.02181 10.5665C5.50693 10.7115 6.00176 10.8035 6.5004 10.8416C6.50014 10.8483 6.5 10.855 6.5 10.8618V11.8634C6.5 12.1395 6.72386 12.3634 7 12.3634C7.27614 12.3634 7.5 12.1395 7.5 11.8634V10.8618L7.49975 10.8458C7.99944 10.8117 8.49534 10.7233 8.9815 10.5811C8.98592 10.5995 8.99142 10.6179 8.99805 10.6361L9.34063 11.5773C9.43507 11.8368 9.72199 11.9706 9.98148 11.8761C10.241 11.7817 10.3748 11.4948 10.2803 11.2353L9.93775 10.2941C9.93055 10.2743 9.92222 10.2552 9.91288 10.2369C10.2967 10.0644 10.6715 9.85639 11.0341 9.6131L11.043 9.62777L11.5787 10.4741C11.7264 10.7074 12.0353 10.7769 12.2686 10.6292C12.5019 10.4815 12.5714 10.1726 12.4237 9.93929L11.888 9.09296C11.8689 9.06272 11.847 9.03523 11.823 9.01061C12.6198 8.32285 13.3376 7.44546 13.9358 6.38178Z"/>
</svg>
