<svg width="68" height="68" viewBox="0 0 68 68" fill="none" xmlns="http://www.w3.org/2000/svg">
<g clip-path="url(#clip0_1384_2987)">
<path d="M66.52 17.74C65.74 14.81 64.03 12.33 61.1 11.55C55.79 10.13 34 10 34 10C34 10 12.21 10.13 6.9 11.55C3.97 12.33 2.27 14.81 1.48 17.74C0.0600001 23.05 0 34 0 34C0 34 0.0600001 44.95 1.48 50.26C2.26 53.19 3.97 55.67 6.9 56.45C12.21 57.87 34 58 34 58C34 58 55.79 57.87 61.1 56.45C64.03 55.67 65.74 53.19 66.52 50.26C67.94 44.95 68 34 68 34C68 34 67.94 23.05 66.52 17.74Z" fill="#FF0000"/>
<path d="M45 34L27 24V44" fill="white"/>
</g>
<defs>
<clipPath id="clip0_1384_2987">
<rect width="68" height="68" fill="white"/>
</clipPath>
</defs>
</svg>
