<svg width="50" height="50" viewBox="0 0 50 50" fill="none" xmlns="http://www.w3.org/2000/svg">
<path fill-rule="evenodd" clip-rule="evenodd" d="M2.2 23.8C1.53726 24.4627 1.53726 25.5373 2.2 26.2L23.8 47.8C24.4627 48.4627 25.5373 48.4627 26.2 47.8L47.8 26.2C48.4627 25.5373 48.4627 24.4627 47.8 23.8L26.2 2.2C25.5373 1.53726 24.4627 1.53726 23.8 2.2L2.2 23.8Z" fill="white"/>
<path d="M1.84645 23.4464C0.988443 24.3045 0.988443 25.6955 1.84645 26.5536L23.4464 48.1536C24.3045 49.0116 25.6955 49.0116 26.5536 48.1536L48.1536 26.5536C49.0116 25.6956 49.0116 24.3044 48.1536 23.4464L26.5536 1.84645C25.6955 0.988444 24.3044 0.988446 23.4464 1.84645L1.84645 23.4464Z" stroke="black" stroke-opacity="0.09" stroke-linejoin="round"/>
<path d="M5.65361 26.0183C5.09126 25.4559 5.09125 24.5442 5.65361 23.9818L23.9818 5.65361C24.5442 5.09126 25.4559 5.09126 26.0183 5.65361L44.3465 23.9818C44.9088 24.5442 44.9088 25.4559 44.3465 26.0183L26.0183 44.3465C25.4559 44.9089 24.5442 44.9089 23.9818 44.3465L5.65361 26.0183Z" fill="#A9A9A9"/>
<path d="M5.65361 26.0183C5.09126 25.4559 5.09125 24.5442 5.65361 23.9818L23.9818 5.65361C24.5442 5.09126 25.4559 5.09126 26.0183 5.65361L44.3465 23.9818C44.9088 24.5442 44.9088 25.4559 44.3465 26.0183L26.0183 44.3465C25.4559 44.9089 24.5442 44.9089 23.9818 44.3465L5.65361 26.0183Z" fill="url(#paint0_linear_1999_6229)"/>
<path d="M6.00716 24.3354L24.3354 6.00717C24.7025 5.64007 25.2976 5.64007 25.6647 6.00716L43.9929 24.3354C44.36 24.7025 44.36 25.2976 43.9929 25.6647L25.6647 43.9929C25.2976 44.36 24.7025 44.36 24.3354 43.9929L6.00716 25.6647C5.64007 25.2976 5.64007 24.7025 6.00716 24.3354Z" stroke="white" stroke-opacity="0.12" stroke-linejoin="round"/>
<g filter="url(#filter0_i_1999_6229)">
<path fill-rule="evenodd" clip-rule="evenodd" d="M24.3345 29.85C24.4829 29.85 24.6303 29.846 24.7767 29.8381L24.7588 29.85C25.6073 31.1228 28.1529 33.2441 29.4257 33.6684C30.5866 34.0554 31.2642 33.9512 31.547 33.6684C32.3437 32.9513 33.2711 31.8752 33.6683 31.1228C33.9762 30.5396 33.7962 30.1822 33.2441 30.2743C31.2718 30.603 28.8751 29.6318 27.8267 29.0563C30.5299 27.755 32.3955 24.9899 32.3955 21.789C32.3955 17.337 28.7865 13.728 24.3345 13.728C19.8825 13.728 16.2735 17.337 16.2735 21.789C16.2735 26.2409 19.8825 29.85 24.3345 29.85ZM27.7286 21.789C27.7286 23.3041 27.2765 24.6249 26.6081 25.5363C25.9392 26.4484 25.1203 26.8801 24.3345 26.8801C23.5487 26.8801 22.7298 26.4484 22.0609 25.5363C21.3925 24.6249 20.9404 23.3041 20.9404 21.789C20.9404 20.2738 21.3925 18.9531 22.0609 18.0416C22.7298 17.1295 23.5487 16.6978 24.3345 16.6978C25.1203 16.6978 25.9392 17.1295 26.6081 18.0416C27.2765 18.9531 27.7286 20.2738 27.7286 21.789Z" fill="#999999"/>
</g>
<path d="M27.4786 21.789C27.4786 23.2565 27.0403 24.5242 26.4065 25.3884C25.7726 26.2529 25.0222 26.6301 24.3345 26.6301C23.6468 26.6301 22.8964 26.2529 22.2625 25.3884C21.6287 24.5242 21.1904 23.2565 21.1904 21.789C21.1904 20.3214 21.6287 19.0537 22.2625 18.1895C22.8964 17.325 23.6468 16.9478 24.3345 16.9478C25.0222 16.9478 25.7726 17.325 26.4065 18.1895C27.0403 19.0537 27.4786 20.3214 27.4786 21.789Z" stroke="black" stroke-opacity="0.06" stroke-width="0.5"/>
<defs>
<filter id="filter0_i_1999_6229" x="16.2735" y="13.728" width="17.5444" height="21.1931" filterUnits="userSpaceOnUse" color-interpolation-filters="sRGB">
<feFlood flood-opacity="0" result="BackgroundImageFix"/>
<feBlend mode="normal" in="SourceGraphic" in2="BackgroundImageFix" result="shape"/>
<feColorMatrix in="SourceAlpha" type="matrix" values="0 0 0 0 0 0 0 0 0 0 0 0 0 0 0 0 0 0 127 0" result="hardAlpha"/>
<feOffset dy="1"/>
<feGaussianBlur stdDeviation="1"/>
<feComposite in2="hardAlpha" operator="arithmetic" k2="-1" k3="1"/>
<feColorMatrix type="matrix" values="0 0 0 0 0 0 0 0 0 0 0 0 0 0 0 0 0 0 0.12 0"/>
<feBlend mode="normal" in2="shape" result="effect1_innerShadow_1999_6229"/>
</filter>
<linearGradient id="paint0_linear_1999_6229" x1="14.8177" y1="14.8177" x2="35.1824" y2="35.1824" gradientUnits="userSpaceOnUse">
<stop offset="0.0618126" stop-color="#C1C1C1"/>
<stop offset="0.756271" stop-color="#B0B0B0"/>
</linearGradient>
</defs>
</svg>
