<svg viewBox="0 0 18 18" xmlns="http://www.w3.org/2000/svg">
<path fill-rule="evenodd" clip-rule="evenodd" d="M11.3478 7.04348C11.1317 7.04348 10.9565 6.86829 10.9565 6.65217V1.95652C10.9565 0.875969 10.0805 0 8.99998 0C7.91942 0 7.04345 0.875969 7.04345 1.95652V6.65217C7.04345 6.86829 6.86826 7.04348 6.65214 7.04348H1.95653C0.875971 7.04348 0 7.91945 0 9C0 10.0806 0.875971 10.9565 1.95653 10.9565H6.65214C6.86826 10.9565 7.04345 11.1317 7.04345 11.3478V16.0435C7.04345 17.124 7.91942 18 8.99998 18C10.0805 18 10.9565 17.124 10.9565 16.0435V11.3478C10.9565 11.1317 11.1317 10.9565 11.3478 10.9565H16.0435C17.124 10.9565 18 10.0806 18 9C18 7.91945 17.124 7.04348 16.0435 7.04348H11.3478Z" />
</svg>