<svg width="18" height="18" viewBox="0 0 18 18" fill="none" xmlns="http://www.w3.org/2000/svg">
<g filter="url(#filter0_d_855_1320)">
<path d="M8.52447 1.46353C8.67415 1.00287 9.32585 1.00287 9.47553 1.46353L10.9084 5.87336C10.9753 6.07937 11.1673 6.21885 11.3839 6.21885H16.0207C16.505 6.21885 16.7064 6.83865 16.3146 7.12336L12.5633 9.84878C12.3881 9.9761 12.3148 10.2018 12.3817 10.4078L13.8145 14.8176C13.9642 15.2783 13.437 15.6613 13.0451 15.3766L9.29389 12.6512C9.11865 12.5239 8.88135 12.5239 8.70611 12.6512L4.95488 15.3766C4.56303 15.6613 4.03578 15.2783 4.18546 14.8176L5.6183 10.4078C5.68524 10.2018 5.61191 9.9761 5.43667 9.84878L1.68544 7.12336C1.29358 6.83866 1.49497 6.21885 1.97933 6.21885H6.6161C6.83272 6.21885 7.02469 6.07937 7.09163 5.87336L8.52447 1.46353Z" fill="url(#paint0_radial_855_1320)"/>
<path d="M8.61958 1.49443C8.73932 1.1259 9.26068 1.1259 9.38042 1.49443L10.8133 5.90426C10.8936 6.15147 11.124 6.31885 11.3839 6.31885H16.0207C16.4082 6.31885 16.5693 6.81469 16.2558 7.04245L12.5046 9.76788C12.2943 9.92066 12.2063 10.1915 12.2866 10.4387L13.7194 14.8485C13.8392 15.2171 13.4174 15.5235 13.1039 15.2957L9.35267 12.5703C9.14238 12.4175 8.85762 12.4175 8.64733 12.5703L4.8961 15.2957C4.58262 15.5235 4.16083 15.2171 4.28057 14.8485L5.71341 10.4387C5.79373 10.1915 5.70574 9.92066 5.49544 9.76788L1.74422 7.04245C1.43073 6.81469 1.59184 6.31885 1.97933 6.31885H6.6161C6.87604 6.31885 7.10641 6.15147 7.18674 5.90426L8.61958 1.49443Z" stroke="white" stroke-opacity="0.36" stroke-width="0.2"/>
</g>
<path opacity="0.6" fill-rule="evenodd" clip-rule="evenodd" d="M9.47555 1.46353C9.40071 1.2332 9.20035 1.11804 9 1.11804V9L6.93514 6.10386C6.84752 6.17645 6.73556 6.21885 6.61612 6.21885H1.97935C1.73204 6.21885 1.5585 6.38044 1.50004 6.5765L9 9L5.61832 10.0988C5.65019 10.1969 5.65179 10.3048 5.61832 10.4078L4.18548 14.8176C4.11064 15.048 4.20503 15.2589 4.36711 15.3767L9 9V12.5557C9.10314 12.5557 9.20628 12.5876 9.29391 12.6512L13.0451 15.3767C13.2411 15.519 13.4708 15.4944 13.6329 15.3767L9 9L12.3817 10.0988C12.4136 10.0007 12.4757 9.91245 12.5634 9.84879L16.3146 7.12336C16.5064 6.98403 16.556 6.76443 16.5 6.5765L9 9L11.0649 6.10386C10.9936 6.0448 10.9384 5.96578 10.9084 5.87336L9.47555 1.46353Z" fill="url(#paint1_linear_855_1320)"/>
<g filter="url(#filter1_d_855_1320)">
<path d="M10.7182 5.93516L9.28532 1.52533C9.24043 1.38717 9.12028 1.31807 9.0001 1.31803V1.11803C9.20041 1.11807 9.4007 1.23324 9.47553 1.46353L10.9084 5.87336C10.9382 5.9652 10.9929 6.04383 11.0636 6.10276L10.9483 6.26684C10.8432 6.18328 10.7617 6.06929 10.7182 5.93516Z" fill="black" fill-opacity="0.12" shape-rendering="crispEdges"/>
<path d="M6.6161 6.41885H1.97933C1.82922 6.41885 1.72441 6.51807 1.69055 6.63755L1.50167 6.57106C1.5617 6.37746 1.73431 6.21885 1.97933 6.21885H6.6161C6.73517 6.21885 6.8468 6.1767 6.9343 6.10453L7.05275 6.26597C6.9316 6.36263 6.77882 6.41885 6.6161 6.41885Z" fill="black" fill-opacity="0.12" shape-rendering="crispEdges"/>
<path d="M5.80851 10.4696L4.37567 14.8794C4.33077 15.0176 4.3874 15.1442 4.48465 15.2148L4.3671 15.3766C4.20501 15.2589 4.11062 15.048 4.18546 14.8176L5.6183 10.4078C5.65177 10.3048 5.65017 10.1969 5.6183 10.0988L5.80851 10.037C5.85313 10.1743 5.85537 10.3254 5.80851 10.4696Z" fill="black" fill-opacity="0.12" shape-rendering="crispEdges"/>
<path d="M9.41145 12.4894L13.1627 15.2148C13.2802 15.3003 13.4181 15.2855 13.5153 15.2148L13.6329 15.3766C13.4708 15.4944 13.241 15.519 13.0451 15.3766L9.29389 12.6512C9.20626 12.5876 9.10311 12.5557 8.99996 12.5557V12.3557C9.14436 12.3557 9.28877 12.4003 9.41145 12.4894Z" fill="black" fill-opacity="0.12" shape-rendering="crispEdges"/>
<path d="M12.4458 9.68698L16.197 6.96155C16.3099 6.87953 16.3407 6.75115 16.3101 6.63984L16.4998 6.57587C16.5561 6.76393 16.5066 6.98387 16.3146 7.12336L12.5633 9.84878C12.4757 9.91244 12.4136 10.0007 12.3817 10.0988L12.1915 10.037C12.2361 9.89965 12.3231 9.7761 12.4458 9.68698Z" fill="black" fill-opacity="0.12" shape-rendering="crispEdges"/>
</g>
<defs>
<filter id="filter0_d_855_1320" x="0.478378" y="0.118034" width="17.0432" height="16.3564" filterUnits="userSpaceOnUse" color-interpolation-filters="sRGB">
<feFlood flood-opacity="0" result="BackgroundImageFix"/>
<feColorMatrix in="SourceAlpha" type="matrix" values="0 0 0 0 0 0 0 0 0 0 0 0 0 0 0 0 0 0 127 0" result="hardAlpha"/>
<feOffset/>
<feGaussianBlur stdDeviation="0.5"/>
<feComposite in2="hardAlpha" operator="out"/>
<feColorMatrix type="matrix" values="0 0 0 0 0 0 0 0 0 0 0 0 0 0 0 0 0 0 0.06 0"/>
<feBlend mode="normal" in2="BackgroundImageFix" result="effect1_dropShadow_855_1320"/>
<feBlend mode="normal" in="SourceGraphic" in2="effect1_dropShadow_855_1320" result="shape"/>
</filter>
<filter id="filter1_d_855_1320" x="0.501671" y="0.118034" width="17.02" height="16.3564" filterUnits="userSpaceOnUse" color-interpolation-filters="sRGB">
<feFlood flood-opacity="0" result="BackgroundImageFix"/>
<feColorMatrix in="SourceAlpha" type="matrix" values="0 0 0 0 0 0 0 0 0 0 0 0 0 0 0 0 0 0 127 0" result="hardAlpha"/>
<feOffset/>
<feGaussianBlur stdDeviation="0.5"/>
<feComposite in2="hardAlpha" operator="out"/>
<feColorMatrix type="matrix" values="0 0 0 0 0 0 0 0 0 0 0 0 0 0 0 0 0 0 0.06 0"/>
<feBlend mode="normal" in2="BackgroundImageFix" result="effect1_dropShadow_855_1320"/>
<feBlend mode="normal" in="SourceGraphic" in2="effect1_dropShadow_855_1320" result="shape"/>
</filter>
<radialGradient id="paint0_radial_855_1320" cx="0" cy="0" r="1" gradientUnits="userSpaceOnUse" gradientTransform="translate(9 4) rotate(90) scale(8 10.5833)">
<stop stop-color="#FF9E9E"/>
<stop offset="1" stop-color="#FC5D5D"/>
</radialGradient>
<linearGradient id="paint1_linear_855_1320" x1="5" y1="-1.5" x2="10" y2="14" gradientUnits="userSpaceOnUse">
<stop stop-color="#FB9191"/>
<stop offset="1" stop-color="#EB4040"/>
</linearGradient>
</defs>
</svg>
