<svg width="12" height="12" viewBox="0 0 12 12" xmlns="http://www.w3.org/2000/svg">
<path fill-rule="evenodd" clip-rule="evenodd" d="M8.7507 6.26818C8.36156 6.65811 8.36156 7.26251 8.7507 7.65244C8.94526 7.84741 9.19821 7.9449 9.43169 7.9449C9.66517 7.9449 9.93757 7.84741 10.1127 7.65244L10.7937 6.97006C11.572 6.19019 12 5.17637 12 4.08455C12 2.99274 11.572 1.95942 10.7937 1.19905C9.19821 -0.399682 6.61043 -0.399682 5.01496 1.19905L4.33397 1.88143C3.94483 2.27136 3.94483 2.87576 4.33397 3.26569C4.72311 3.65563 5.32627 3.65563 5.71541 3.26569L6.39641 2.58331C7.23305 1.74495 8.59504 1.74495 9.43169 2.58331C9.84028 2.99274 10.0543 3.51915 10.0543 4.10405C10.0543 4.66945 9.84028 5.21536 9.43169 5.62479L8.7507 6.26818ZM1.20151 10.8107C1.99925 11.6101 3.04992 12 4.08114 12C5.13181 12 6.18249 11.6101 6.96077 10.8107L7.64176 10.1283C8.0309 9.73838 8.0309 9.13398 7.64176 8.74404C7.25262 8.35411 6.64946 8.35411 6.26032 8.74404L5.57933 9.42643C4.74268 10.2648 3.38069 10.2648 2.54404 9.42643C1.70739 8.58807 1.70739 7.2233 2.54404 6.38494L3.22503 5.70255C3.61417 5.31262 3.61417 4.70822 3.22503 4.31829C2.8359 3.92835 2.23273 3.92835 1.84359 4.31829L1.1626 5.00067C-0.393958 6.6189 -0.393958 9.23146 1.20151 10.8107ZM4.21739 6.4046L6.41603 4.20147C6.80517 3.83104 7.40834 3.83104 7.77802 4.20147C8.16716 4.59141 8.16716 5.19581 7.77802 5.58574L5.57938 7.78886C5.40427 7.98383 5.15133 8.08131 4.89839 8.08131C4.6649 8.08131 4.41196 7.98383 4.21739 7.78886C3.82825 7.39893 3.82825 6.79453 4.21739 6.4046Z" />
</svg>
