<svg width="18" height="18" viewBox="0 0 18 18" fill="none" xmlns="http://www.w3.org/2000/svg">
<g filter="url(#filter0_dd_855_1310)">
<path d="M8.52447 1.46353C8.67415 1.00287 9.32585 1.00287 9.47553 1.46353L10.9084 5.87336C10.9753 6.07937 11.1673 6.21885 11.3839 6.21885H16.0207C16.505 6.21885 16.7064 6.83866 16.3146 7.12336L12.5633 9.84878C12.3881 9.9761 12.3148 10.2018 12.3817 10.4078L13.8145 14.8176C13.9642 15.2783 13.437 15.6613 13.0451 15.3766L9.29389 12.6512C9.11865 12.5239 8.88135 12.5239 8.70611 12.6512L4.95488 15.3766C4.56303 15.6613 4.03578 15.2783 4.18546 14.8176L5.6183 10.4078C5.68524 10.2018 5.61191 9.9761 5.43667 9.84878L1.68544 7.12336C1.29358 6.83866 1.49497 6.21885 1.97933 6.21885H6.6161C6.83272 6.21885 7.02469 6.07937 7.09163 5.87336L8.52447 1.46353Z" fill="url(#paint0_radial_855_1310)"/>
</g>
<defs>
<filter id="filter0_dd_855_1310" x="1.47838" y="0.618034" width="15.0432" height="15.3564" filterUnits="userSpaceOnUse" color-interpolation-filters="sRGB">
<feFlood flood-opacity="0" result="BackgroundImageFix"/>
<feColorMatrix in="SourceAlpha" type="matrix" values="0 0 0 0 0 0 0 0 0 0 0 0 0 0 0 0 0 0 127 0" result="hardAlpha"/>
<feOffset dy="-0.5"/>
<feComposite in2="hardAlpha" operator="out"/>
<feColorMatrix type="matrix" values="0 0 0 0 0 0 0 0 0 0 0 0 0 0 0 0 0 0 0.5 0"/>
<feBlend mode="normal" in2="BackgroundImageFix" result="effect1_dropShadow_855_1310"/>
<feColorMatrix in="SourceAlpha" type="matrix" values="0 0 0 0 0 0 0 0 0 0 0 0 0 0 0 0 0 0 127 0" result="hardAlpha"/>
<feOffset dy="0.5"/>
<feComposite in2="hardAlpha" operator="out"/>
<feColorMatrix type="matrix" values="0 0 0 0 1 0 0 0 0 1 0 0 0 0 1 0 0 0 1 0"/>
<feBlend mode="normal" in2="effect1_dropShadow_855_1310" result="effect2_dropShadow_855_1310"/>
<feBlend mode="normal" in="SourceGraphic" in2="effect2_dropShadow_855_1310" result="shape"/>
</filter>
<radialGradient id="paint0_radial_855_1310" cx="0" cy="0" r="1" gradientUnits="userSpaceOnUse" gradientTransform="translate(9 10) rotate(90) scale(14.5 13.75)">
<stop stop-color="#4B4B4B"/>
<stop offset="1" stop-color="#FFFEFE"/>
</radialGradient>
</defs>
</svg>
