<svg width="18" height="18" viewBox="0 0 18 18" fill="none" xmlns="http://www.w3.org/2000/svg">
<g filter="url(#filter0_d_553_27)">
<path d="M8.52447 1.46353C8.67415 1.00287 9.32585 1.00287 9.47553 1.46353L10.9084 5.87336C10.9753 6.07937 11.1673 6.21885 11.3839 6.21885H16.0207C16.505 6.21885 16.7064 6.83866 16.3146 7.12336L12.5633 9.84878C12.3881 9.9761 12.3148 10.2018 12.3817 10.4078L13.8145 14.8176C13.9642 15.2783 13.437 15.6613 13.0451 15.3766L9.29389 12.6512C9.11865 12.5239 8.88135 12.5239 8.70611 12.6512L4.95488 15.3766C4.56303 15.6613 4.03578 15.2783 4.18546 14.8176L5.6183 10.4078C5.68524 10.2018 5.61191 9.9761 5.43667 9.84878L1.68544 7.12336C1.29358 6.83866 1.49497 6.21885 1.97933 6.21885H6.6161C6.83272 6.21885 7.02469 6.07937 7.09163 5.87336L8.52447 1.46353Z" fill="url(#paint0_radial_553_27)"/>
<path d="M9.38042 1.49443L10.8133 5.90426C10.8936 6.15147 11.124 6.31885 11.3839 6.31885H16.0207C16.4082 6.31885 16.5693 6.81469 16.2558 7.04245L12.5046 9.76788C12.2943 9.92066 12.2063 10.1915 12.2866 10.4387L13.7194 14.8485C13.8392 15.2171 13.4174 15.5235 13.1039 15.2957L9.35267 12.5703C9.14238 12.4175 8.85762 12.4175 8.64733 12.5703L4.8961 15.2957C4.58262 15.5235 4.16083 15.2171 4.28057 14.8485L5.71341 10.4387C5.79373 10.1915 5.70574 9.92066 5.49544 9.76788L1.74422 7.04245C1.43073 6.81469 1.59184 6.31885 1.97933 6.31885H6.6161C6.87604 6.31885 7.10641 6.15147 7.18674 5.90426L8.61958 1.49443C8.73932 1.1259 9.26068 1.1259 9.38042 1.49443Z" stroke="white" stroke-opacity="0.24" stroke-width="0.2"/>
</g>
<path opacity="0.3" fill-rule="evenodd" clip-rule="evenodd" d="M9.47555 1.46353C9.40071 1.2332 9.20035 1.11804 9 1.11804V9L6.93514 6.10386C6.84752 6.17645 6.73556 6.21885 6.61612 6.21885H1.97935C1.73204 6.21885 1.5585 6.38044 1.50004 6.5765L9 9L5.61832 10.0988C5.65019 10.1969 5.65179 10.3048 5.61832 10.4078L4.18548 14.8176C4.11064 15.048 4.20503 15.2589 4.36711 15.3767L9 9V12.5557C9.10314 12.5557 9.20628 12.5876 9.29391 12.6512L13.0451 15.3767C13.2411 15.519 13.4708 15.4944 13.6329 15.3767L9 9L12.3817 10.0988C12.4136 10.0007 12.4757 9.91245 12.5634 9.84879L16.3146 7.12336C16.5064 6.98403 16.556 6.76443 16.5 6.5765L9 9L11.0649 6.10386C10.9936 6.0448 10.9384 5.96578 10.9084 5.87336L9.47555 1.46353Z" fill="url(#paint1_linear_553_27)"/>
<g filter="url(#filter1_d_553_27)">
<path d="M10.7182 5.93517L9.28535 1.52534C9.24047 1.38718 9.12031 1.31808 9.00014 1.31804V1.11804C9.20045 1.11808 9.40074 1.23325 9.47557 1.46353L10.9084 5.87336C10.9383 5.96521 10.9929 6.04383 11.0636 6.10277L10.9484 6.26685C10.8432 6.18328 10.7618 6.0693 10.7182 5.93517Z" fill="black" fill-opacity="0.12" shape-rendering="crispEdges"/>
<path d="M6.61614 6.41885H1.97937C1.82926 6.41885 1.72445 6.51807 1.69059 6.63755L1.50171 6.57107C1.56174 6.37747 1.73435 6.21885 1.97937 6.21885H6.61614C6.73521 6.21885 6.84683 6.17671 6.93434 6.10454L7.05278 6.26598C6.93164 6.36264 6.77886 6.41885 6.61614 6.41885Z" fill="black" fill-opacity="0.12" shape-rendering="crispEdges"/>
<path d="M5.80855 10.4696L4.37571 14.8794C4.33081 15.0176 4.38744 15.1442 4.48469 15.2148L4.36714 15.3767C4.20505 15.2589 4.11066 15.048 4.1855 14.8176L5.61834 10.4078C5.65181 10.3048 5.65021 10.1969 5.61834 10.0988L5.80855 10.037C5.85317 10.1743 5.85541 10.3254 5.80855 10.4696Z" fill="black" fill-opacity="0.12" shape-rendering="crispEdges"/>
<path d="M9.41149 12.4894L13.1627 15.2148C13.2803 15.3003 13.4181 15.2855 13.5154 15.2148L13.6329 15.3767C13.4709 15.4944 13.2411 15.519 13.0452 15.3767L9.29393 12.6512C9.2063 12.5876 9.10315 12.5557 9 12.5557V12.3557C9.1444 12.3557 9.28881 12.4003 9.41149 12.4894Z" fill="black" fill-opacity="0.12" shape-rendering="crispEdges"/>
<path d="M12.4458 9.68698L16.197 6.96156C16.3099 6.87954 16.3408 6.75116 16.3101 6.63985L16.4998 6.57588C16.5562 6.76394 16.5066 6.98387 16.3146 7.12336L12.5634 9.84879C12.4758 9.91245 12.4136 10.0007 12.3817 10.0988L12.1915 10.037C12.2361 9.89966 12.3231 9.77611 12.4458 9.68698Z" fill="black" fill-opacity="0.12" shape-rendering="crispEdges"/>
</g>
<defs>
<filter id="filter0_d_553_27" x="0.478374" y="0.118034" width="17.0433" height="16.3564" filterUnits="userSpaceOnUse" color-interpolation-filters="sRGB">
<feFlood flood-opacity="0" result="BackgroundImageFix"/>
<feColorMatrix in="SourceAlpha" type="matrix" values="0 0 0 0 0 0 0 0 0 0 0 0 0 0 0 0 0 0 127 0" result="hardAlpha"/>
<feOffset/>
<feGaussianBlur stdDeviation="0.5"/>
<feComposite in2="hardAlpha" operator="out"/>
<feColorMatrix type="matrix" values="0 0 0 0 0 0 0 0 0 0 0 0 0 0 0 0 0 0 0.06 0"/>
<feBlend mode="normal" in2="BackgroundImageFix" result="effect1_dropShadow_553_27"/>
<feBlend mode="normal" in="SourceGraphic" in2="effect1_dropShadow_553_27" result="shape"/>
</filter>
<filter id="filter1_d_553_27" x="0.501709" y="0.118042" width="17.02" height="16.3564" filterUnits="userSpaceOnUse" color-interpolation-filters="sRGB">
<feFlood flood-opacity="0" result="BackgroundImageFix"/>
<feColorMatrix in="SourceAlpha" type="matrix" values="0 0 0 0 0 0 0 0 0 0 0 0 0 0 0 0 0 0 127 0" result="hardAlpha"/>
<feOffset/>
<feGaussianBlur stdDeviation="0.5"/>
<feComposite in2="hardAlpha" operator="out"/>
<feColorMatrix type="matrix" values="0 0 0 0 0 0 0 0 0 0 0 0 0 0 0 0 0 0 0.06 0"/>
<feBlend mode="normal" in2="BackgroundImageFix" result="effect1_dropShadow_553_27"/>
<feBlend mode="normal" in="SourceGraphic" in2="effect1_dropShadow_553_27" result="shape"/>
</filter>
<radialGradient id="paint0_radial_553_27" cx="0" cy="0" r="1" gradientUnits="userSpaceOnUse" gradientTransform="translate(9 7.5) rotate(90) scale(5.5 6.6878)">
<stop stop-color="#FED2B2"/>
<stop offset="1" stop-color="#FFB884"/>
</radialGradient>
<linearGradient id="paint1_linear_553_27" x1="5" y1="-1.5" x2="10" y2="14" gradientUnits="userSpaceOnUse">
<stop stop-color="#FCD7BC"/>
<stop offset="1" stop-color="#F49651"/>
</linearGradient>
</defs>
</svg>
